# Blender 4.1.1
# www.blender.org
mtllib untitled.mtl
o Cube
v 0.000000 0.973566 -0.512217
v 0.000000 -0.445295 -0.512217
v 0.000000 0.973566 0.512217
v 0.000000 -0.445295 0.512217
v -1.090241 0.973566 -0.129157
v -0.531062 -0.445295 -0.332646
v -1.090241 0.973566 0.129157
v -0.531062 -0.445295 0.332646
v 0.000000 -0.897579 -0.520021
v 0.000000 -0.941968 0.503241
v -0.523014 -0.714636 -0.303142
v -0.513485 -0.784815 0.340656
v -0.322395 -1.441148 -0.107176
v -0.254697 -1.501703 0.382315
v -0.612199 -1.432622 0.019804
v -0.544711 -1.524026 0.294248
v -0.311745 -2.183704 -0.177837
v -0.307898 -2.193512 0.065045
v -0.440451 -2.198089 -0.131280
v -0.434983 -2.203294 0.026453
v -0.290886 -2.407408 -0.186706
v -0.287039 -2.417217 0.056176
v -0.419592 -2.421794 -0.140149
v -0.414124 -2.426999 0.017585
v -0.561334 -2.436608 0.440694
v -0.434249 -2.426826 0.479285
v -0.543829 -2.456321 0.452149
v -0.416743 -2.446540 0.490740
v 0.000000 1.383840 0.109379
v -0.508019 1.331960 0.373885
v 0.000000 1.383840 -0.149999
v -0.508019 1.331960 -0.291408
v -0.384699 1.502740 0.108724
v -0.384699 1.502740 -0.150654
v 0.170884 1.937136 -0.149999
v 0.170884 1.937136 0.109379
v -0.213589 2.056036 -0.150654
v -0.213589 2.056036 0.108724
v -1.090241 0.973566 -0.129157
v -1.090241 0.973566 0.129157
v -3.125201 1.039020 -0.045459
v -3.125201 1.039020 0.045459
v -1.090241 1.175574 0.129157
v -1.090241 1.175574 -0.129157
v -3.125201 1.110120 0.045459
v -3.125201 1.110120 -0.045459
v -3.344141 0.999465 0.096039
v -3.344141 0.999465 -0.096039
v -3.344141 1.149675 0.096039
v -3.344141 1.149675 -0.096039
v 1.090241 0.973566 -0.129157
v 0.531062 -0.445295 -0.332646
v 1.090241 0.973566 0.129157
v 0.531062 -0.445295 0.332646
v 0.523014 -0.714636 -0.303142
v 0.513485 -0.784815 0.340656
v 0.322395 -1.441148 -0.107176
v 0.254697 -1.501703 0.382315
v 0.612199 -1.432622 0.019804
v 0.544711 -1.524026 0.294248
v 0.311745 -2.183704 -0.177837
v 0.307898 -2.193512 0.065045
v 0.440451 -2.198089 -0.131280
v 0.434983 -2.203294 0.026453
v 0.290886 -2.407408 -0.186706
v 0.287039 -2.417217 0.056176
v 0.419592 -2.421794 -0.140149
v 0.414124 -2.426999 0.017585
v 0.561334 -2.436608 0.440694
v 0.434249 -2.426826 0.479285
v 0.543829 -2.456321 0.452149
v 0.416743 -2.446540 0.490740
v 0.508019 1.331960 0.373885
v 0.508019 1.331960 -0.291408
v 0.384699 1.502740 0.108724
v 0.384699 1.502740 -0.150654
v -0.170884 1.937136 -0.149999
v -0.170884 1.937136 0.109379
v 0.213589 2.056036 -0.150654
v 0.213589 2.056036 0.108724
v 1.090241 0.973566 -0.129157
v 1.090241 0.973566 0.129157
v 3.125201 1.039020 -0.045459
v 3.125201 1.039020 0.045459
v 1.090241 1.175574 0.129157
v 1.090241 1.175574 -0.129157
v 3.125201 1.110120 0.045459
v 3.125201 1.110120 -0.045459
v 3.344141 0.999465 0.096039
v 3.344141 0.999465 -0.096039
v 3.344141 1.149675 0.096039
v 3.344141 1.149675 -0.096039
vn -0.1510 0.3545 -0.9228
vn -0.3278 0.0031 0.9447
vn -0.9304 -0.3667 -0.0000
vn -0.9991 -0.0417 0.0050
vn -0.3278 0.0031 -0.9447
vn 0.8758 -0.4772 -0.0723
vn -0.3567 -0.0321 -0.9337
vn -0.3123 -0.0077 0.9499
vn -0.2401 -0.3894 0.8893
vn -0.4334 -0.3443 -0.8328
vn -0.3058 -0.0551 0.9505
vn -0.9898 0.1009 0.1008
vn 0.9956 0.0933 -0.0120
vn -0.9684 -0.2217 0.1139
vn 0.9952 -0.0031 -0.0975
vn -0.3826 0.0890 -0.9196
vn 0.0928 -0.9949 -0.0394
vn -0.3407 0.0055 -0.9402
vn 0.9326 0.1505 0.3279
vn -0.9951 -0.0940 0.0314
vn -0.2988 0.2671 0.9162
vn 0.0889 -0.9952 -0.0406
vn -0.9326 -0.1505 -0.3279
vn -0.1994 0.8786 0.4340
vn -0.1016 0.9948 -0.0000
vn -0.0798 0.2585 0.9627
vn -0.5242 0.8516 -0.0000
vn 1.0000 -0.0000 -0.0000
vn -0.0016 0.0005 1.0000
vn 0.2955 0.9554 -0.0000
vn 0.9555 -0.2951 -0.0000
vn 0.0016 -0.0005 -1.0000
vn -0.9554 0.2955 -0.0000
vn -0.0321 -0.9995 -0.0000
vn -0.0321 0.9995 -0.0000
vn -0.0411 -0.0000 -0.9992
vn 0.1778 0.9841 -0.0000
vn -0.0411 -0.0000 0.9992
vn -1.0000 -0.0000 -0.0000
vn 0.1778 -0.9841 -0.0000
vn 0.2251 -0.0000 0.9743
vn 0.2251 -0.0000 -0.9743
vn 0.1510 0.3545 -0.9228
vn 0.3278 0.0031 0.9447
vn 0.9304 -0.3667 -0.0000
vn 0.9991 -0.0417 0.0050
vn 0.3278 0.0031 -0.9447
vn -0.8758 -0.4772 -0.0723
vn 0.3567 -0.0321 -0.9337
vn 0.3123 -0.0077 0.9499
vn 0.2401 -0.3894 0.8893
vn 0.4334 -0.3443 -0.8328
vn 0.3058 -0.0551 0.9505
vn 0.9898 0.1009 0.1008
vn -0.9956 0.0933 -0.0120
vn 0.9684 -0.2217 0.1139
vn -0.9952 -0.0031 -0.0975
vn 0.3826 0.0890 -0.9196
vn -0.0928 -0.9949 -0.0394
vn 0.3407 0.0055 -0.9402
vn -0.9326 0.1505 0.3279
vn 0.9951 -0.0940 0.0314
vn 0.2988 0.2671 0.9162
vn -0.0889 -0.9952 -0.0406
vn 0.9326 -0.1505 -0.3279
vn 0.1994 0.8786 0.4340
vn 0.1016 0.9948 -0.0000
vn 0.0798 0.2585 0.9627
vn 0.5242 0.8516 -0.0000
vn 0.0016 0.0005 1.0000
vn -0.2954 0.9554 -0.0000
vn -0.9555 -0.2951 -0.0000
vn -0.0016 -0.0005 -1.0000
vn 0.9554 0.2955 -0.0000
vn 0.0321 -0.9995 -0.0000
vn 0.0321 0.9995 -0.0000
vn 0.0411 -0.0000 -0.9992
vn -0.1778 0.9841 -0.0000
vn 0.0411 -0.0000 0.9992
vn -0.1778 -0.9841 -0.0000
vn -0.2251 -0.0000 0.9743
vn -0.2251 -0.0000 -0.9743
vt 0.625000 0.500000
vt 0.625000 0.250000
vt 0.375000 0.750000
vt 0.625000 0.750000
vt 0.625000 1.000000
vt 0.375000 1.000000
vt 0.375000 0.000000
vt 0.625000 0.000000
vt 0.375000 0.250000
vt 0.375000 0.500000
vt 0.000000 0.000000
vt 0.125000 0.500000
vt 0.125000 0.750000
vt 0.875000 0.500000
vt 0.875000 0.750000
s 0
usemtl Material
f 1/1/1 5/2/1 32/2/1 31/1/1
f 4/3/2 3/4/2 7/5/2 8/6/2
f 8/7/3 7/8/3 5/2/3 6/9/3
f 8/7/4 6/9/4 11/9/4 12/7/4
f 6/9/5 5/2/5 1/1/5 2/10/5
f 9/11/6 10/11/6 14/11/6 13/11/6
f 6/9/7 2/10/7 9/10/7 11/9/7
f 4/3/8 8/6/8 12/6/8 10/3/8
f 14/3/9 16/6/9 20/6/9 18/3/9
f 11/9/10 9/10/10 13/10/10 15/9/10
f 10/3/11 12/6/11 16/6/11 14/3/11
f 12/7/12 11/9/12 15/9/12 16/7/12
f 17/11/13 18/11/13 22/11/13 21/11/13
f 16/7/14 15/9/14 19/9/14 20/7/14
f 13/11/15 14/11/15 18/11/15 17/11/15
f 15/9/16 13/10/16 17/10/16 19/9/16
f 23/12/17 21/10/17 22/3/17 24/13/17
f 19/9/18 17/10/18 21/10/18 23/9/18
f 22/11/19 18/11/19 26/11/19 28/11/19
f 20/7/20 19/9/20 23/9/20 24/7/20
f 26/3/21 25/6/21 27/6/21 28/3/21
f 24/13/22 22/3/22 28/3/22 27/13/22
f 20/7/23 24/7/23 27/7/23 25/7/23
f 18/3/24 20/6/24 25/6/24 26/3/24
f 31/1/25 32/14/25 30/15/25 29/4/25
f 7/5/26 3/4/26 29/4/26 30/5/26
f 5/2/27 7/8/27 30/8/27 32/2/27
f 3/11/28 1/11/28 31/11/28 29/11/28
f 33/11/29 29/11/29 36/11/29 38/11/29
f 36/4/30 35/1/30 37/1/30 38/4/30
f 29/11/31 31/11/31 35/11/31 36/11/31
f 31/11/32 34/11/32 37/11/32 35/11/32
f 34/11/33 33/11/33 38/11/33 37/11/33
f 40/8/34 42/8/34 41/2/34 39/2/34
f 43/8/35 44/2/35 46/2/35 45/8/35
f 39/2/36 41/2/36 46/2/36 44/2/36
f 45/8/37 46/2/37 50/2/37 49/8/37
f 42/8/38 40/8/38 43/8/38 45/8/38
f 40/8/28 39/2/28 44/2/28 43/8/28
f 48/2/39 47/8/39 49/8/39 50/2/39
f 41/2/40 42/8/40 47/8/40 48/2/40
f 42/8/41 45/8/41 49/8/41 47/8/41
f 46/2/42 41/2/42 48/2/42 50/2/42
f 1/1/43 31/1/43 74/2/43 51/2/43
f 4/3/44 54/6/44 53/5/44 3/4/44
f 54/7/45 52/9/45 51/2/45 53/8/45
f 54/7/46 56/7/46 55/9/46 52/9/46
f 52/9/47 2/10/47 1/1/47 51/2/47
f 9/11/48 57/11/48 58/11/48 10/11/48
f 52/9/49 55/9/49 9/10/49 2/10/49
f 4/3/50 10/3/50 56/6/50 54/6/50
f 58/3/51 62/3/51 64/6/51 60/6/51
f 55/9/52 59/9/52 57/10/52 9/10/52
f 10/3/53 58/3/53 60/6/53 56/6/53
f 56/7/54 60/7/54 59/9/54 55/9/54
f 61/11/55 65/11/55 66/11/55 62/11/55
f 60/7/56 64/7/56 63/9/56 59/9/56
f 57/11/57 61/11/57 62/11/57 58/11/57
f 59/9/58 63/9/58 61/10/58 57/10/58
f 67/12/59 68/13/59 66/3/59 65/10/59
f 63/9/60 67/9/60 65/10/60 61/10/60
f 66/11/61 72/11/61 70/11/61 62/11/61
f 64/7/62 68/7/62 67/9/62 63/9/62
f 70/3/63 72/3/63 71/6/63 69/6/63
f 68/13/64 71/13/64 72/3/64 66/3/64
f 64/7/65 69/7/65 71/7/65 68/7/65
f 62/3/66 70/3/66 69/6/66 64/6/66
f 31/1/67 29/4/67 73/15/67 74/14/67
f 53/5/68 73/5/68 29/4/68 3/4/68
f 51/2/69 74/2/69 73/8/69 53/8/69
f 75/11/70 80/11/70 78/11/70 29/11/70
f 78/4/71 80/4/71 79/1/71 77/1/71
f 29/11/72 78/11/72 77/11/72 31/11/72
f 31/11/73 77/11/73 79/11/73 76/11/73
f 76/11/74 79/11/74 80/11/74 75/11/74
f 82/8/75 81/2/75 83/2/75 84/8/75
f 85/8/76 87/8/76 88/2/76 86/2/76
f 81/2/77 86/2/77 88/2/77 83/2/77
f 87/8/78 91/8/78 92/2/78 88/2/78
f 84/8/79 87/8/79 85/8/79 82/8/79
f 82/8/39 85/8/39 86/2/39 81/2/39
f 90/2/28 92/2/28 91/8/28 89/8/28
f 83/2/80 90/2/80 89/8/80 84/8/80
f 84/8/81 89/8/81 91/8/81 87/8/81
f 88/2/82 92/2/82 90/2/82 83/2/82
